<svg xmlns="http://www.w3.org/2000/svg" aria-hidden="true" style="position:absolute;width:0;height:0;overflow:hidden"><defs><symbol id="home3" viewBox="0 0 32 32"><path d="m32 19-6-6V4h-4v5l-6-6L0 19v1h4v10h10v-6h4v6h10V20h4z"/></symbol><symbol id="switch" viewBox="0 0 32 32"><path d="M20 4.581V8.83a10 10 0 0 1 3.071 2.099C24.96 12.818 26 15.329 26 18s-1.04 5.182-2.929 7.071C21.182 26.96 18.671 28 16 28s-5.182-1.04-7.071-2.929C7.04 23.182 6 20.671 6 18s1.04-5.182 2.929-7.071A9.982 9.982 0 0 1 12 8.83V4.581C6.217 6.302 2 11.658 2 18c0 7.732 6.268 14 14 14s14-6.268 14-14c0-6.342-4.217-11.698-10-13.419zM14 0h4v16h-4z"/></symbol><symbol id="eye-blocked" viewBox="0 0 32 32"><path d="M29.561.439a1.5 1.5 0 0 0-2.121 0l-6.318 6.318A17.626 17.626 0 0 0 16 6C9.021 6 2.972 10.064 0 16a18.323 18.323 0 0 0 5.407 6.472L.439 27.44a1.5 1.5 0 1 0 2.122 2.121l27-27a1.5 1.5 0 0 0 0-2.121zM13 10a3 3 0 0 1 2.841 2.037l-3.804 3.804A3 3 0 0 1 13 10zm-9.559 6a15.223 15.223 0 0 1 5.041-4.925A7.985 7.985 0 0 0 8 13.812c0 1.715.54 3.304 1.459 4.607l-1.904 1.904A15.219 15.219 0 0 1 3.441 16zM24 13.813c0-.849-.133-1.667-.378-2.434L13.566 21.435a8 8 0 0 0 10.435-7.622z"/><path d="M25.938 9.062 23.77 11.23l.118.074a15.212 15.212 0 0 1 4.67 4.697 15.223 15.223 0 0 1-4.67 4.697 14.642 14.642 0 0 1-11.45 1.864l-2.403 2.403a17.587 17.587 0 0 0 5.964 1.036c6.978 0 13.027-4.064 16-10a18.292 18.292 0 0 0-6.062-6.938z"/></symbol><symbol id="evil2" viewBox="0 0 32 32"><path d="M32 2a9.971 9.971 0 0 0-.833-4 10.036 10.036 0 0 1-5.453 5.287C23.02 1.226 19.653 0 16 0S8.979 1.226 6.286 3.287A10.033 10.033 0 0 1 .833-2 9.971 9.971 0 0 0 0 2c0 2.299.777 4.417 2.081 6.106A15.923 15.923 0 0 0 0 16c0 8.837 7.163 16 16 16s16-7.163 16-16c0-2.871-.757-5.565-2.081-7.894A9.956 9.956 0 0 0 32 2zm-13.997 9.891c.064-1.483 1.413-2.467 2.55-3.036 1.086-.543 2.16-.814 2.205-.826a1 1 0 1 1 .485 1.941 9.195 9.195 0 0 0-1.779.667 2 2 0 1 1-3.46 1.254zM8.03 8.758a1 1 0 0 1 1.213-.728c.045.011 1.119.283 2.205.826 1.137.569 2.486 1.553 2.55 3.036a2 2 0 1 1-3.46-1.254 9.195 9.195 0 0 0-1.779-.667 1.001 1.001 0 0 1-.728-1.213zM16 26a9.994 9.994 0 0 1-8.576-4.855l2.573-1.544c1.224 2.036 3.454 3.398 6.003 3.398s4.779-1.362 6.003-3.398l2.573 1.544A9.996 9.996 0 0 1 16 26z"/></symbol><symbol id="loop2" viewBox="0 0 32 32"><path d="M27.802 5.197A15.958 15.958 0 0 0 15.999 0c-8.837 0-16 7.163-16 16h3c0-7.18 5.82-13 13-13 3.844 0 7.298 1.669 9.678 4.322L20.999 12h11V1l-4.198 4.197zM29 16c0 7.18-5.82 13-13 13a12.965 12.965 0 0 1-9.678-4.322L11 20H0v11l4.197-4.197A15.958 15.958 0 0 0 16 32c8.837 0 16-7.163 16-16h-3z"/></symbol><symbol id="arrow-up2" viewBox="0 0 32 32"><path d="m27.414 12.586-10-10a2 2 0 0 0-2.828 0l-10 10a2 2 0 1 0 2.828 2.828L14 8.828V28a2 2 0 1 0 4 0V8.828l6.586 6.586c.39.39.902.586 1.414.586s1.024-.195 1.414-.586a2 2 0 0 0 0-2.828z"/></symbol><symbol id="arrow-down2" viewBox="0 0 32 32"><path d="m27.414 19.414-10 10a2 2 0 0 1-2.828 0l-10-10a2 2 0 1 1 2.828-2.828L14 23.172V4a2 2 0 1 1 4 0v19.172l6.586-6.586c.39-.39.902-.586 1.414-.586s1.024.195 1.414.586a2 2 0 0 1 0 2.828z"/></symbol></defs></svg>